<svg width="34" height="30" viewBox="0 0 34 30" fill="none" xmlns="http://www.w3.org/2000/svg">
<path d="M31.2537 2.78515C29.4734 0.998312 27.1164 0.0217025 24.6008 0.0217025C22.0852 0.0217025 19.721 1.00555 17.9406 2.79238L17.0108 3.72558L16.0666 2.77791C14.2862 0.991078 11.9148 0 9.39921 0C6.89084 0 4.52663 0.983844 2.75348 2.76344C0.973113 4.55028 -0.00716849 6.92308 3.94687e-05 9.44779C3.94687e-05 11.9725 0.987529 14.3381 2.76789 16.1249L16.3044 29.7106C16.4918 29.8987 16.7441 30 16.9892 30C17.2343 30 17.4865 29.906 17.6739 29.7179L31.2393 16.1538C33.0197 14.367 34 11.9942 34 9.4695C34.0072 6.94478 33.0341 4.57198 31.2537 2.78515ZM29.8698 14.7721L16.9892 27.6489L4.13741 14.7504C2.72465 13.3325 1.94619 11.4517 1.94619 9.44779C1.94619 7.44394 2.71744 5.56306 4.1302 4.1524C5.53575 2.74174 7.40982 1.96045 9.39921 1.96045C11.3958 1.96045 13.2771 2.74174 14.6898 4.15963L16.3188 5.79455C16.7009 6.17796 17.3135 6.17796 17.6956 5.79455L19.3101 4.1741C20.7229 2.75621 22.6042 1.97492 24.5936 1.97492C26.583 1.97492 28.457 2.75621 29.8698 4.16687C31.2826 5.58476 32.0538 7.46564 32.0538 9.4695C32.061 11.4734 31.2826 13.3542 29.8698 14.7721Z" fill="#FF6300"/>
<path d="M29.8698 14.7721L16.9892 27.6489L4.13741 14.7504C2.72465 13.3325 1.94619 11.4517 1.94619 9.44779C1.94619 7.44394 2.71744 5.56306 4.1302 4.1524C5.53575 2.74174 7.40982 1.96045 9.39921 1.96045C11.3958 1.96045 13.2771 2.74174 14.6898 4.15963L16.3188 5.79455C16.7009 6.17796 17.3135 6.17796 17.6956 5.79455L19.3101 4.1741C20.7229 2.75621 22.6042 1.97492 24.5936 1.97492C26.583 1.97492 28.457 2.75621 29.8698 4.16687C31.2826 5.58476 32.0538 7.46564 32.0538 9.4695C32.061 11.4734 31.2826 13.3542 29.8698 14.7721Z" fill="#FF6300"/>
</svg>
